# xmcd CD database file
#
# Track frame offsets:
#	150
#	27062
#	54653
#	69830
#	97773
#	114974
#	150568
#	164227
#	208776
#	231225
#
# Disc length: 3287 seconds
#
# Revision: 1
# Processed by: cddbd v1.5.2PL0 Copyright (c) Steve Scherf et al.
# Submitted via: CDex 1.70beta2
#
DISCID=7a0cd50a
DTITLE=Bar Kokhba - Lucifer
DYEAR=2008
DGENRE=Jazz
TTITLE0=Sother
TTITLE1=Dalquiel
TTITLE2=Zazel
TTITLE3=Gediel
TTITLE4=Rahal
TTITLE5=Zechriel
TTITLE6=Azbugah
TTITLE7=Mehalalel
TTITLE8=Quelamia
TTITLE9=Abdiel
EXTD=YEAR: 2008
EXTT0=
EXTT1=
EXTT2=
EXTT3=
EXTT4=
EXTT5=
EXTT6=
EXTT7=
EXTT8=
EXTT9=
PLAYORDER=
